Coordinates
version=1
nRows=11
nColumns=46
inDegrees=yes

Units are S.I. units (second, meters, Newtons, ...)
Angles are in degrees.

endheader
time	pelvis_tilt	pelvis_list	pelvis_rotation	pelvis_tx	pelvis_ty	pelvis_tz	bb_angle	bb_tx	bb_ty	bb_tz	hip_flexion_r	hip_adduction_r	hip_rotation_r	knee_angle_r	knee_angle_r_beta	ankle_angle_r	subtalar_angle_r	mtp_angle_r	crank_angle_r	hip_flexion_l	hip_adduction_l	hip_rotation_l	knee_angle_l	knee_angle_l_beta	ankle_angle_l	subtalar_angle_l	mtp_angle_l	crank_angle_l	lumbar_extension	lumbar_bending	lumbar_rotation	arm_flex_r	arm_add_r	arm_rot_r	elbow_flex_r	pro_sup_r	wrist_flex_r	wrist_dev_r	arm_flex_l	arm_add_l	arm_rot_l	elbow_flex_l	pro_sup_l	wrist_flex_l	wrist_dev_l
      7.50500000	    -21.69518825	      7.98249905	      5.96424425	      0.36462592	      1.20503526	     -0.15655197	      0.00000000	      0.50000000	      0.00000000	      0.25000000	     30.72404772	    -11.99464091	    -11.15001458	     28.69876980	      0.50088802	    -15.85643726	      4.14498975	      0.00000000	      0.00000000	     76.84142649	    -10.14669098	     -1.01535972	    105.22891784	      1.83659108	      7.89209638	     10.28590081	      0.00000000	      0.00000000	    -61.56440386	     -7.08163219	     -8.78093687	     53.23299516	    -25.45139217	     29.83354205	     79.62605609	     49.36798274	      0.00000000	      0.00000000	     78.04396687	    -48.32926496	     60.66023943	     79.27243613	     52.32111983	      0.00000000	      0.00000000
      7.51000000	    -21.85911175	      7.93332409	      6.24791086	      0.36427217	      1.20592499	     -0.15701923	      0.00000000	      0.50000000	      0.00000000	      0.25000000	     30.52170130	    -12.10853455	    -11.28506308	     29.06439656	      0.50726942	    -16.29184755	      3.83222962	      0.00000000	      0.00000000	     77.56392464	     -9.60249524	     -0.98041882	    104.81021269	      1.82928330	      8.24511022	      9.79354153	      0.00000000	      0.00000000	    -61.68904664	     -7.12631250	     -8.53775836	     52.81561296	    -26.19698756	     29.39182758	     80.31336435	     49.45996185	      0.00000000	      0.00000000	     80.16265219	    -48.04492970	     63.44581525	     79.24868743	     52.51593902	      0.00000000	      0.00000000
      7.51500000	    -22.01053521	      7.91263871	      6.55101732	      0.36399999	      1.20719594	     -0.15758207	      0.00000000	      0.50000000	      0.00000000	      0.25000000	     30.45590844	    -12.29157343	    -11.45260686	     29.68338077	      0.51807273	    -16.68044626	      3.36959059	      0.00000000	      0.00000000	     78.12423087	     -9.01723866	     -1.01655784	    104.22352621	      1.81904369	      8.69324711	      9.44226648	      0.00000000	      0.00000000	    -61.82761784	     -7.02175780	     -8.65386461	     52.96045121	    -26.28436904	     29.27774494	     80.29279751	     49.44420270	      0.00000000	      0.00000000	     80.48003970	    -47.79219206	     63.39725537	     79.37920401	     52.51974825	      0.00000000	      0.00000000
      7.52000000	    -22.15648778	      7.93910629	      6.85583414	      0.36366706	      1.20864943	     -0.15826221	      0.00000000	      0.50000000	      0.00000000	      0.25000000	     30.48513746	    -12.49427716	    -11.43369072	     30.51167228	      0.53252914	    -16.82224002	      2.60443015	      0.00000000	      0.00000000	     78.55812525	     -8.37899523	     -1.13309922	    103.48685232	      1.80618631	      9.01422732	      9.14646385	      0.00000000	      0.00000000	    -62.02141449	     -6.93837439	     -8.80302106	     53.10998099	    -26.42873096	     29.15844870	     80.29972265	     49.43291549	      0.00000000	      0.00000000	     80.85236935	    -47.55590050	     63.42903751	     79.53206068	     52.53552492	      0.00000000	      0.00000000
      7.52500000	    -22.36103672	      8.05496254	      7.13639307	      0.36328575	      1.21016683	     -0.15895033	      0.00000000	      0.50000000	      0.00000000	      0.25000000	     30.77205952	    -12.78298287	    -11.24301340	     31.64020720	      0.55222579	    -17.20103494	      1.68165415	      0.00000000	      0.00000000	     78.87526748	     -7.68512657	     -1.36855472	    102.56991549	      1.79018274	      9.31524711	      8.59417706	      0.00000000	      0.00000000	    -62.10368571	     -6.90826877	     -9.01189406	     53.19885632	    -26.61434700	     29.07810417	     80.37111786	     49.43837105	      0.00000000	      0.00000000	     81.46971807	    -47.27191561	     63.79276505	     79.54067861	     52.55964745	      0.00000000	      0.00000000
      7.53000000	    -22.63569642	      8.06508359	      7.25151952	      0.36286857	      1.21155613	     -0.15933267	      0.00000000	      0.50000000	      0.00000000	      0.25000000	     31.33991325	    -12.87900157	    -10.84097086	     32.99163622	      0.57581268	    -17.54096574	      0.92416111	      0.00000000	      0.00000000	     79.16649351	     -7.25717523	     -1.63527266	    101.54027221	      1.77221207	      9.79923721	      8.59724621	      0.00000000	      0.00000000	    -62.16971090	     -7.04365740	     -8.88736487	     53.01614657	    -27.08983518	     28.74807305	     80.80717892	     49.49041464	      0.00000000	      0.00000000	     83.05774536	    -46.95049920	     65.80022437	     79.32138112	     52.69232040	      0.00000000	      0.00000000
      7.53500000	    -22.86209065	      7.91288955	      7.34031555	      0.36267767	      1.21282281	     -0.16041753	      0.00000000	      0.50000000	      0.00000000	      0.25000000	     31.95012000	    -12.88466906	    -10.57420886	     34.52614201	      0.60259486	    -17.96147604	      0.00419098	      0.00000000	      0.00000000	     79.35382625	     -6.81278755	     -1.68681452	    100.48160386	      1.75373483	     10.34647020	      8.25549300	      0.00000000	      0.00000000	    -62.19209831	     -6.95302001	     -8.80625741	     53.09345372	    -27.30959740	     28.57388662	     80.78619986	     49.47150677	      0.00000000	      0.00000000	     83.32394479	    -46.72397742	     65.86737918	     79.42441224	     52.70278556	      0.00000000	      0.00000000
      7.54000000	    -22.90330118	      7.68976663	      7.48832954	      0.36238000	      1.21459474	     -0.16118985	      0.00000000	      0.50000000	      0.00000000	      0.25000000	     32.42389594	    -12.81150404	    -10.30554568	     36.15638556	      0.63104797	    -18.14090084	     -0.74995278	      0.00000000	      0.00000000	     79.20756285	     -6.35370020	     -1.63692590	     99.22445425	      1.73179343	     10.94966087	      7.67631207	      0.00000000	      0.00000000	    -62.40494789	     -6.70772744	     -8.67596850	     53.29539297	    -27.38490427	     28.42185825	     80.77011811	     49.45169586	      0.00000000	      0.00000000	     83.54175316	    -46.61884092	     65.83015146	     79.46642667	     52.69936298	      0.00000000	      0.00000000
      7.54500000	    -23.37307099	      7.78996820	      7.65610256	      0.36181169	      1.21590652	     -0.16192423	      0.00000000	      0.50000000	      0.00000000	      0.25000000	     33.59526983	    -13.10072223	     -9.80685664	     38.11167138	      0.66517415	    -18.45182770	     -2.15105212	      0.00000000	      0.00000000	     79.19997274	     -5.76285239	     -2.01753498	     97.62362364	      1.70385366	     11.35884246	      6.67301715	      0.00000000	      0.00000000	    -62.27487225	     -6.81529177	     -8.91905985	     53.34805980	    -27.54683378	     28.19255884	     80.78869717	     49.43393179	      0.00000000	      0.00000000	     83.90683751	    -46.41907398	     65.91095161	     79.50359292	     52.70066789	      0.00000000	      0.00000000
      7.55000000	    -23.51001721	      7.71059141	      7.74876629	      0.36142113	      1.21774378	     -0.16201797	      0.00000000	      0.50000000	      0.00000000	      0.25000000	     34.43197884	    -13.11811257	     -9.35690383	     40.04886176	      0.69898450	    -18.77959817	     -3.10835190	      0.00000000	      0.00000000	     78.72110945	     -5.41049273	     -2.23456389	     95.88309963	      1.67347579	     11.84117152	      6.74061277	      0.00000000	      0.00000000	    -62.44288924	     -6.76392744	     -8.94947401	     53.47349210	    -27.54011670	     27.95617722	     80.80754536	     49.41317010	      0.00000000	      0.00000000	     84.24943121	    -46.38898775	     66.01241283	     79.36959724	     52.68097608	      0.00000000	      0.00000000
      7.55500000	    -23.67349826	      7.37025315	      7.80528716	      0.36122709	      1.21897263	     -0.16305394	      0.00000000	      0.50000000	      0.00000000	      0.25000000	     35.38492571	    -13.00914240	     -9.13121466	     42.15431220	      0.73573154	    -18.97966606	     -3.81585790	      0.00000000	      0.00000000	     78.29542640	     -5.10261990	     -2.17060653	     94.18766265	      1.64388483	     12.57229980	      6.25074588	      0.00000000	      0.00000000	    -62.44725405	     -6.52906623	     -8.73180326	     53.60484653	    -27.53558565	     27.73809988	     80.76114145	     49.37227848	      0.00000000	      0.00000000	     84.29203108	    -46.20881399	     65.85660922	     79.51772151	     52.66578796	      0.00000000	      0.00000000
